<svg width="120" height="40" viewBox="0 0 120 40" fill="none" xmlns="http://www.w3.org/2000/svg">
  <rect width="120" height="40" rx="8" fill="url(#gradient)"/>
  <path d="M20 8C12 8 8 12 8 20C8 28 12 32 20 32C28 32 32 28 32 20C32 12 28 8 20 8Z" stroke="#10B981" stroke-width="2" fill="none"/>
  <path d="M16 16C18 14 20 14 22 16C24 18 24 20 22 22C20 24 18 24 16 22C14 20 14 18 16 16Z" fill="#10B981"/>
  <text x="40" y="26" fill="#10B981" font-size="14" font-weight="bold">AGROTM</text>
  <defs>
    <linearGradient id="gradient" x1="0%" y1="0%" x2="100%" y2="100%">
      <stop offset="0%" style="stop-color:#1F2937;stop-opacity:1" />
      <stop offset="100%" style="stop-color:#111827;stop-opacity:1" />
    </linearGradient>
  </defs>
</svg> 