<svg width="200" height="200" viewBox="0 0 200 200" fill="none" xmlns="http://www.w3.org/2000/svg">
  <rect width="200" height="200" fill="#1F2937"/>
  <rect x="20" y="20" width="160" height="160" rx="8" stroke="#374151" stroke-width="2" fill="none"/>
  <path d="M60 80C60 60 80 60 100 60C120 60 140 60 140 80C140 100 120 100 100 100C80 100 60 100 60 80Z" stroke="#6B7280" stroke-width="2" fill="none"/>
  <path d="M80 120C80 110 90 110 100 110C110 110 120 110 120 120C120 130 110 130 100 130C90 130 80 130 80 120Z" fill="#6B7280"/>
  <text x="100" y="170" text-anchor="middle" fill="#9CA3AF" font-size="12">NFT Placeholder</text>
</svg> 