<svg width="24" height="24" viewBox="0 0 24 24" fill="none" xmlns="http://www.w3.org/2000/svg">
  <path d="M6 3C6 3 8 5 12 5C16 5 18 3 18 3C18 3 16 5 12 5C8 5 6 3 6 3Z" fill="currentColor"/>
  <path d="M6 3C6 3 8 5 12 5C16 5 18 3 18 3C18 3 16 7 12 7C8 7 6 3 6 3Z" fill="currentColor"/>
  <path d="M6 3C6 3 8 9 12 9C16 9 18 3 18 3C18 3 16 11 12 11C8 11 6 3 6 3Z" fill="currentColor"/>
  <path d="M6 3C6 3 8 13 12 13C16 13 18 3 18 3C18 3 16 15 12 15C8 15 6 3 6 3Z" fill="currentColor"/>
  <path d="M6 3C6 3 8 17 12 17C16 17 18 3 18 3C18 3 16 19 12 19C8 19 6 3 6 3Z" fill="currentColor"/>
  <path d="M6 3C6 3 8 21 12 21C16 21 18 3 18 3" stroke="currentColor" stroke-width="2" stroke-linecap="round"/>
</svg> 