<?xml version="1.0" encoding="UTF-8" standalone="no"?>
<svg xmlns="http://www.w3.org/2000/svg" width="32" height="32" viewBox="0 0 32 32">
  <!-- Fundo branco puro -->
  <rect width="32" height="32" fill="#FFFFFF"/>
  
  <!-- Gráfico estilizado de duas espigas de trigo (versão mini) -->
  <g transform="translate(8, 4)">
    <!-- Espiga maior (esquerda, ereta) -->
    <g transform="translate(0, 0)">
      <!-- Caule principal -->
      <rect x="7" y="8" width="1" height="12" fill="#2e7d32"/>
      
      <!-- Seções ovais dos grãos -->
      <ellipse cx="7.5" cy="10" rx="1" ry="2" fill="#2e7d32"/>
      <ellipse cx="7.5" cy="13" rx="1" ry="2" fill="#2e7d32"/>
      <ellipse cx="7.5" cy="16" rx="1" ry="2" fill="#2e7d32"/>
      <ellipse cx="7.5" cy="19" rx="1" ry="2" fill="#2e7d32"/>
      
      <!-- Finas linhas verticais (barbas) -->
      <line x1="6.5" y1="10" x2="5" y2="9" stroke="#2e7d32" stroke-width="0.5"/>
      <line x1="8.5" y1="10" x2="10" y2="9" stroke="#2e7d32" stroke-width="0.5"/>
      <line x1="6.5" y1="13" x2="5" y2="12" stroke="#2e7d32" stroke-width="0.5"/>
      <line x1="8.5" y1="13" x2="10" y2="12" stroke="#2e7d32" stroke-width="0.5"/>
      <line x1="6.5" y1="16" x2="5" y2="15" stroke="#2e7d32" stroke-width="0.5"/>
      <line x1="8.5" y1="16" x2="10" y2="15" stroke="#2e7d32" stroke-width="0.5"/>
      <line x1="6.5" y1="19" x2="5" y2="18" stroke="#2e7d32" stroke-width="0.5"/>
      <line x1="8.5" y1="19" x2="10" y2="18" stroke="#2e7d32" stroke-width="0.5"/>
    </g>
    
    <!-- Espiga menor (direita, inclinada) -->
    <g transform="translate(8, 2) rotate(15)">
      <!-- Caule secundário -->
      <rect x="7" y="6" width="0.8" height="10" fill="#2e7d32"/>
      
      <!-- Seções ovais dos grãos -->
      <ellipse cx="7.4" cy="8" rx="0.8" ry="1.5" fill="#2e7d32"/>
      <ellipse cx="7.4" cy="11" rx="0.8" ry="1.5" fill="#2e7d32"/>
      <ellipse cx="7.4" cy="14" rx="0.8" ry="1.5" fill="#2e7d32"/>
      
      <!-- Barbas -->
      <line x1="6.8" y1="8" x2="5.5" y2="7" stroke="#2e7d32" stroke-width="0.4"/>
      <line x1="8" y1="8" x2="9.3" y2="7" stroke="#2e7d32" stroke-width="0.4"/>
      <line x1="6.8" y1="11" x2="5.5" y2="10" stroke="#2e7d32" stroke-width="0.4"/>
      <line x1="8" y1="11" x2="9.3" y2="10" stroke="#2e7d32" stroke-width="0.4"/>
      <line x1="6.8" y1="14" x2="5.5" y2="13" stroke="#2e7d32" stroke-width="0.4"/>
      <line x1="8" y1="14" x2="9.3" y2="13" stroke="#2e7d32" stroke-width="0.4"/>
    </g>
  </g>
</svg>