<svg width="64" height="64" viewBox="0 0 64 64" fill="none" xmlns="http://www.w3.org/2000/svg">
  <defs>
    <linearGradient id="iconGradient" x1="0%" y1="0%" x2="100%" y2="100%">
      <stop offset="0%" style="stop-color:#22c55e;stop-opacity:1" />
      <stop offset="50%" style="stop-color:#16a34a;stop-opacity:1" />
      <stop offset="100%" style="stop-color:#15803d;stop-opacity:1" />
    </linearGradient>
  </defs>
  
  <!-- Background Circle -->
  <circle cx="32" cy="32" r="30" fill="url(#iconGradient)" stroke="#ffffff" stroke-width="2"/>
  
  <!-- Leaf Design -->
  <path d="M20 25C20 20 25 15 30 15C35 15 40 20 40 25C40 30 35 35 30 35C25 35 20 30 20 25Z" fill="#ffffff"/>
  <path d="M30 15C30 10 35 5 40 5C45 5 50 10 50 15C50 20 45 25 40 25C35 25 30 20 30 15Z" fill="#ffffff"/>
  
  <!-- Blockchain Connection Lines -->
  <path d="M15 45L25 35" stroke="#ffffff" stroke-width="2" stroke-linecap="round"/>
  <path d="M45 35L55 45" stroke="#ffffff" stroke-width="2" stroke-linecap="round"/>
  <path d="M32 5L32 15" stroke="#ffffff" stroke-width="2" stroke-linecap="round"/>
</svg> 