<svg width="200" height="60" viewBox="0 0 200 60" fill="none" xmlns="http://www.w3.org/2000/svg">
  <defs>
    <linearGradient id="logoGradient" x1="0%" y1="0%" x2="100%" y2="100%">
      <stop offset="0%" style="stop-color:#22c55e;stop-opacity:1" />
      <stop offset="50%" style="stop-color:#16a34a;stop-opacity:1" />
      <stop offset="100%" style="stop-color:#15803d;stop-opacity:1" />
    </linearGradient>
  </defs>
  
  <!-- Leaf Icon -->
  <path d="M15 20C15 15 20 10 25 10C30 10 35 15 35 20C35 25 30 30 25 30C20 30 15 25 15 20Z" fill="url(#logoGradient)"/>
  <path d="M25 10C25 5 30 0 35 0C40 0 45 5 45 10C45 15 40 20 35 20C30 20 25 15 25 10Z" fill="url(#logoGradient)"/>
  
  <!-- AGROTM Text -->
  <text x="50" y="25" font-family="Arial, sans-serif" font-size="24" font-weight="bold" fill="#1f2937">AGRO</text>
  <text x="120" y="25" font-family="Arial, sans-serif" font-size="24" font-weight="bold" fill="url(#logoGradient)">TM</text>
  
  <!-- Tagline -->
  <text x="50" y="45" font-family="Arial, sans-serif" font-size="10" fill="#6b7280">DeFi Agriculture</text>
</svg> 